<?xml version="1.0" standalone="no"?><!DOCTYPE svg PUBLIC "-//W3C//DTD SVG 1.1//EN" "http://www.w3.org/Graphics/SVG/1.1/DTD/svg11.dtd"><svg t="1545889803904" class="icon" style="" viewBox="0 0 1024 1024" version="1.1" xmlns="http://www.w3.org/2000/svg" p-id="17113" xmlns:xlink="http://www.w3.org/1999/xlink" width="200" height="200"><defs><style type="text/css"></style></defs><path d="M646.2855 303.429q0-53.143 53.714-53.143 53.143 0 53.143 53.143t-53.143 53.143q-53.714 0-53.714-53.143zM574.8575 303.429q0 125.143 125.143 125.143 124.571 0 124.571-125.143 0-124.571-124.571-124.571-125.143 0-125.143 124.571zM869.7145 442.857q0 32-32 32l-276 0q-32 0-32-32l0-278.857q0-32 32-32l276 0q32 0 32 32l0 278.857zM767.4285 524.571q45.714 0 45.714 45.714t-45.714 45.714-45.714-45.714 45.714-45.714zM631.9995 524.571q45.714 0 45.714 45.714t-45.714 45.714-45.714-45.714 45.714-45.714zM838.8575 753.714q0 17.714-18.286 17.714l-460.571 0q-18.286 0-18.286-17.714l0-65.714q0-17.714 18.286-17.714l460.571 0q18.286 0 18.286 17.714l0 65.714zM309.1425 145.143q0-17.714 17.714-17.714l65.714 0q17.714 0 17.714 17.714l0 389.714q0 17.714-17.714 17.714l-65.714 0q-17.714 0-17.714-17.714l0-389.714zM222.2855 534.857q0 17.714-17.714 17.714l-65.714 0q-18.286 0-18.286-17.714l0-389.714q0-17.714 18.286-17.714l65.714 0q17.714 0 17.714 17.714l0 389.714zM125.7145 720.571q0-45.714 45.714-45.714t45.714 45.714-45.714 45.714-45.714-45.714zM974.2855 341.143q18.286 0 18.286-17.714l0-73.143q0-17.714-18.286-17.714l-26.857 0 0-124q0-89.714-89.143-89.714l-737.714 0q-89.143 0-89.143 89.714l0 678.857q0 89.714 89.143 89.714l737.714 0q89.143 0 89.143-89.714l0-16 26.857 0q18.286 0 18.286-17.714l0-144.571q0-18.286-18.286-18.286l-26.857 0 0-88.571 26.857 0q18.286 0 18.286-17.714l0-73.143q0-17.714-18.286-17.714l-26.857 0 0-52.571 26.857 0z" p-id="17114"></path></svg>