<?xml version="1.0" standalone="no"?><!DOCTYPE svg PUBLIC "-//W3C//DTD SVG 1.1//EN" "http://www.w3.org/Graphics/SVG/1.1/DTD/svg11.dtd"><svg t="1545921572451" class="icon" style="" viewBox="0 0 1024 1024" version="1.1" xmlns="http://www.w3.org/2000/svg" p-id="27486" xmlns:xlink="http://www.w3.org/1999/xlink" width="200" height="200"><defs><style type="text/css"></style></defs><path d="M881.904 469.6c-43.408-120.336-149.312-212.672-280.976-242.048 33.744-48.4 89.648-80.208 153.104-80.208 103.136 0 186.752 83.616 186.752 186.752C940.8 387.6 917.984 435.536 881.904 469.6zM522.768 154.304l0 117.424c179.2 7.312 322.336 154.48 322.336 335.456 0 75.568-25.248 145.056-67.328 201.2l77.872 134.896-64.704 37.344-66.64-115.424c-58.336 48.736-133.392 78.128-215.36 78.128-81.504 0-156.192-29.008-214.4-77.264l-68.4 118.432-64.672-37.328 79.472-137.68c-42.576-56.32-68.144-126.256-68.144-202.304 0-179.76 141.232-326.112 318.688-335.264L491.488 154.304c-18.128-6.48-31.264-23.392-31.264-43.744 0-25.92 21.024-46.912 46.912-46.912 25.936 0 46.928 21.008 46.928 46.912C554.064 130.912 540.912 147.808 522.768 154.304zM247.488 607.184c0 144.4 117.056 261.456 261.456 261.456 144.4 0 261.456-117.04 261.456-261.456 0-144.384-117.056-261.44-261.456-261.44C364.544 345.744 247.488 462.8 247.488 607.184zM587.328 663.68l-93.872 0c-17.264 0-31.264-14.016-31.264-31.264l0-125.12c0-17.28 14-31.296 31.264-31.296 17.296 0 31.296 14.016 31.296 31.296l0 93.824 62.576 0c17.264 0 31.264 14 31.264 31.296C618.592 649.664 604.592 663.68 587.328 663.68zM140.656 469.6c-36.08-34.048-58.912-82-58.912-135.52 0-103.136 83.616-186.752 186.768-186.752 63.472 0 119.344 31.808 153.104 80.208C289.952 256.928 184.048 349.264 140.656 469.6z" p-id="27487"></path></svg>