<?xml version="1.0" standalone="no"?><!DOCTYPE svg PUBLIC "-//W3C//DTD SVG 1.1//EN" "http://www.w3.org/Graphics/SVG/1.1/DTD/svg11.dtd"><svg t="1545889620252" class="icon" style="" viewBox="0 0 1024 1024" version="1.1" xmlns="http://www.w3.org/2000/svg" p-id="10791" xmlns:xlink="http://www.w3.org/1999/xlink" width="200" height="200"><defs><style type="text/css"></style></defs><path d="M672.256 320H351.744c-17.92 0-31.744 14.336-31.744 31.744v320c0 17.92 14.336 31.744 31.744 31.744h320c17.92 0 31.744-14.336 31.744-31.744V351.744c0.512-17.408-13.824-31.744-31.232-31.744z" p-id="10792"></path><path d="M896 543.744c17.92 0 31.744-14.336 31.744-31.744 0-17.92-14.336-31.744-31.744-31.744h-64V384H896c17.92 0 31.744-14.336 31.744-31.744 0-17.92-14.336-31.744-31.744-31.744h-64V256c0-35.328-28.672-64-64-64h-64V128c0-17.92-14.336-31.744-31.744-31.744-17.92 0-31.744 14.336-31.744 31.744v64h-96.256V128c0-17.92-14.336-31.744-31.744-31.744-17.92 0-31.744 14.336-31.744 31.744v64H384V128c0-17.92-14.336-31.744-31.744-31.744-17.92 0-31.744 14.336-31.744 31.744v64H256c-35.328 0-64 28.672-64 64v64H128c-17.92 0-31.744 14.336-31.744 31.744 0 17.92 14.336 31.744 31.744 31.744h64v96.256H128c-17.92 0-31.744 14.336-31.744 31.744 0 17.92 14.336 31.744 31.744 31.744h64V640H128c-17.92 0-31.744 14.336-31.744 31.744 0 17.92 14.336 31.744 31.744 31.744h64V768c0 35.328 28.672 64 64 64h64V896c0 17.92 14.336 31.744 31.744 31.744 17.92 0 31.744-14.336 31.744-31.744v-64h96.256V896c0 17.92 14.336 31.744 31.744 31.744 17.92 0 31.744-14.336 31.744-31.744v-64H640V896c0 17.92 14.336 31.744 31.744 31.744 17.92 0 31.744-14.336 31.744-31.744v-64H768c35.328 0 64-28.672 64-64v-64H896c17.92 0 31.744-14.336 31.744-31.744 0-17.92-14.336-31.744-31.744-31.744h-64v-96.256H896zM768 768H288.256c-17.92 0-32.256-14.336-32.256-32.256V256h479.744c17.92 0 32.256 14.336 32.256 32.256V768z" p-id="10793"></path></svg>