<?xml version="1.0" standalone="no"?><!DOCTYPE svg PUBLIC "-//W3C//DTD SVG 1.1//EN" "http://www.w3.org/Graphics/SVG/1.1/DTD/svg11.dtd"><svg t="1545918576464" class="icon" style="" viewBox="0 0 1024 1024" version="1.1" xmlns="http://www.w3.org/2000/svg" p-id="14185" xmlns:xlink="http://www.w3.org/1999/xlink" width="200" height="200"><defs><style type="text/css"></style></defs><path d="M219.429 658.286q0-30.281-21.431-51.712t-51.712-21.431-51.712 21.43-21.431 51.713 21.43 51.712 51.713 21.43 51.712-21.43 21.43-51.712z m109.714-256q0-30.281-21.431-51.712T256 329.143t-51.712 21.43-21.43 51.713 21.43 51.712T256 475.428t51.712-21.43 21.43-51.712z m244.553 274.87l57.71-218.294q3.437-14.848-4.28-27.721t-22.015-16.86-27.429 3.73-17.152 22.565l-57.71 218.295q-34.303 2.852-61.147 24.868t-35.986 56.284q-11.447 43.995 11.447 83.42t66.852 50.87 83.42-11.447 50.87-66.852q9.143-34.304-3.437-66.853t-41.143-52.004z m377.161-18.87q0-30.281-21.43-51.712t-51.713-21.431-51.712 21.43-21.43 51.713 21.43 51.712 51.712 21.43 51.712-21.43 21.431-51.712zM585.143 292.57q0-30.28-21.431-51.712T512 219.43t-51.712 21.43-21.43 51.712 21.43 51.712T512 365.714t51.712-21.43 21.43-51.713z m256 109.715q0-30.281-21.431-51.712T768 329.143t-51.712 21.43-21.43 51.713 21.43 51.712T768 475.428t51.712-21.43 21.43-51.712z m182.857 256q0 149.138-80.567 276.004-10.862 16.567-30.866 16.567H111.433q-20.004 0-30.866-16.567Q0 808.01 0 658.286q0-104.01 40.558-198.84T149.687 296.01 313.125 186.88t198.838-40.558 198.84 40.558T874.24 296.01t109.13 163.437 40.557 198.839z" p-id="14186"></path></svg>