<?xml version="1.0" standalone="no"?><!DOCTYPE svg PUBLIC "-//W3C//DTD SVG 1.1//EN" "http://www.w3.org/Graphics/SVG/1.1/DTD/svg11.dtd"><svg t="1545918490404" class="icon" style="" viewBox="0 0 1024 1024" version="1.1" xmlns="http://www.w3.org/2000/svg" p-id="12702" xmlns:xlink="http://www.w3.org/1999/xlink" width="200" height="200"><defs><style type="text/css"></style></defs><path d="M558.505173 409.689846c0-25.668613-20.836561-46.50722-46.505173-46.50722s-46.505173 20.837584-46.505173 46.50722c0 25.668613 20.836561 46.503127 46.505173 46.503127S558.505173 435.358459 558.505173 409.689846zM223.669152 65.552995c-51.337225 0-93.010347 41.672098-93.010347 93.010347l0 706.873316c0 51.338249 41.672098 93.010347 93.010347 93.010347l576.660672 0c51.337225 0 93.009324-41.672098 93.009324-93.010347L893.339148 158.563342c0-51.337225-41.672098-93.010347-93.009324-93.010347L223.669152 65.552995zM512 158.563342c138.768507 0 251.126504 112.353904 251.126504 251.126504 0 72.363098-30.518061 137.662313-79.622432 183.421496-25.104771-18.983353-48.556902-37.58706-61.946864-51.154054-39.98262-40.002063-104.725156-40.002063-144.727219 0-30.30112 30.315446-37.56864 75.151607-21.944801 112.353904-111.230314-25.866111-194.012715-125.563764-194.012715-244.621347C260.873496 270.917246 373.229446 158.563342 512 158.563342zM223.669152 818.931484c0-25.666566 20.836561-46.505173 46.505173-46.505173s46.505173 20.837584 46.505173 46.505173c0 25.668613-20.836561 46.505173-46.505173 46.505173S223.669152 844.600097 223.669152 818.931484zM529.675568 594.781378c11.154038-11.163247 29.191856-11.163247 40.546461 0 6.52153 6.696516 189.379185 135.420249 210.580043 156.627247 26.031886 26.232454 26.031886 68.452022 0 94.500281-26.050306 26.041096-68.286246 26.041096-94.500281 0C663.97632 823.583434 535.796986 641.288598 529.675568 635.32784 518.503111 623.982444 518.503111 605.935416 529.675568 594.781378z" p-id="12703"></path></svg>