<?xml version="1.0" standalone="no"?><!DOCTYPE svg PUBLIC "-//W3C//DTD SVG 1.1//EN" "http://www.w3.org/Graphics/SVG/1.1/DTD/svg11.dtd"><svg t="1545919059880" class="icon" style="" viewBox="0 0 1024 1024" version="1.1" xmlns="http://www.w3.org/2000/svg" p-id="14911" xmlns:xlink="http://www.w3.org/1999/xlink" width="200" height="200"><defs><style type="text/css"></style></defs><path d="M960 800H64c-38.4 0-64-25.6-64-64V64C0 25.6 25.6 0 64 0h896c38.4 0 64 25.6 64 64v672c0 38.4-25.6 64-64 64z m0-672c0-38.4-25.6-64-64-64H128c-38.4 0-64 25.6-64 64v448c0 38.4 25.6 64 64 64h768c38.4 0 64-25.6 64-64V128zM384 928v-96h256v96s64 32 96 64-32 32-32 32H320s-64 0-32-32 96-64 96-64z" fill="" p-id="14912"></path></svg>