<?xml version="1.0" standalone="no"?><!DOCTYPE svg PUBLIC "-//W3C//DTD SVG 1.1//EN" "http://www.w3.org/Graphics/SVG/1.1/DTD/svg11.dtd"><svg t="1545919179469" class="icon" style="" viewBox="0 0 1024 1024" version="1.1" xmlns="http://www.w3.org/2000/svg" p-id="20740" xmlns:xlink="http://www.w3.org/1999/xlink" width="200" height="200"><defs><style type="text/css"></style></defs><path d="M1014.118 492.319c0 96.676-207.063 302.919-502.138 302.919-287.566 0-502.138-202.848-502.138-302.919 0-100.065 215.498-302.599 502.138-302.599 297.394 0 502.207 202.54 502.138 302.599zM512.421 244.974c-133.638 0-241.978 110.817-241.978 247.507s108.34 247.506 241.978 247.506c133.686 0 242.024-110.82 242.024-247.506 0-136.69-108.339-247.507-242.024-247.507z m0 0" fill="" p-id="20741"></path><path d="M511.98 334.466c-85.104 0-154.098 70.553-154.098 157.604 0 87.031 68.993 157.602 154.098 157.602 85.105 0 154.069-70.571 154.069-157.602 0.001-87.051-68.963-157.604-154.069-157.604z m0 0" fill="" p-id="20742"></path></svg>