<?xml version="1.0" standalone="no"?><!DOCTYPE svg PUBLIC "-//W3C//DTD SVG 1.1//EN" "http://www.w3.org/Graphics/SVG/1.1/DTD/svg11.dtd"><svg t="1545917884228" class="icon" style="" viewBox="0 0 1024 1024" version="1.1" xmlns="http://www.w3.org/2000/svg" p-id="11693" xmlns:xlink="http://www.w3.org/1999/xlink" width="200" height="200"><defs><style type="text/css"></style></defs><path d="M196.858627 380.19841q-18.024469 0-18.024469 18.024469l0 29.852842q0 18.024469 18.024469 18.024469l219.106812 0q18.024469 0 18.024469-18.024469l0-29.852842q0-18.024469-18.024469-18.024469l-219.106812 0zM196.858627 288.951383q-18.024469 0-18.024469 18.024469l0 29.852842q0 18.587303 18.024469 18.587303l219.106812 0q18.024469 0 18.024469-18.587303l0-29.852842q0-18.024469-18.024469-18.024469l-219.106812 0zM196.858627 471.446423q-18.024469 0-18.024469 18.024469l0 29.852842q0 18.024469 18.024469 18.024469l219.106812 0q18.024469 0 18.024469-18.024469l0-29.852842q0-18.024469-18.024469-18.024469l-219.106812 0zM134.336804 583.534058q-18.024469 0-18.024469-18.587303l0-310.917658q0-18.587303 18.024469-18.587303l532.276789 0q174.045639 0 174.045639 174.045639t-174.045639 174.045639l-532.276789 0zM898.67543 50.130617l0 69.843586-782.362109 0q-91.247027 0-91.247027 91.247027l0 381.324077q0 91.247027 91.247027 91.247027l-0.562833 45.624006q0 18.024469 18.587303 18.024469l140.250991 0q18.587303 0 18.587303-18.024469l0-45.624006 64.774142 0 0 45.624006q0 18.024469 18.587303 18.024469l344.712305 0q18.024469 0 18.024469-18.024469l0-45.624006 159.401127 0 0 163.907737q0 50.129631 50.129631 50.129631t50.129631-50.129631l0-797.57044q0-50.129631-50.129631-50.129631t-50.129631 50.129631zM611.978338 409.487433q0-54.072422 54.636241-54.072422 54.072422 0 54.072422 54.072422 0 54.636241-54.072422 54.636241-54.636241 0-54.636241-54.636241zM546.076557 409.487433q0 120.537036 120.537036 120.537036t120.537036-120.537036-120.537036-120.537036-120.537036 120.537036z" p-id="11694"></path></svg>