<?xml version="1.0" standalone="no"?><!DOCTYPE svg PUBLIC "-//W3C//DTD SVG 1.1//EN" "http://www.w3.org/Graphics/SVG/1.1/DTD/svg11.dtd"><svg t="1545896323977" class="icon" style="" viewBox="0 0 1136 1024" version="1.1" xmlns="http://www.w3.org/2000/svg" p-id="2003" xmlns:xlink="http://www.w3.org/1999/xlink" width="221.875" height="200"><defs><style type="text/css"></style></defs><path d="M1106.835836 197.269034C1053.34339 77.423936 939.778275 0 817.531271 0c-123.848274 0-203.411408 55.081207-249.548018 113.890373C521.834134 55.093717 442.28351 0 318.422726 0 196.175722 0 82.610608 77.423936 29.118161 197.269034c-55.281366 123.860784-30.924539 261.770216 65.201738 368.892719C327.017046 825.592613 532.630201 1009.488535 534.669319 1011.314984c9.507544 8.45671 21.416995 12.685066 33.301425 12.685066 11.89694 0 23.806391-4.228355 33.301425-12.685066 2.039118-1.826449 207.677293-185.722372 440.34942-445.153232C1137.735355 459.02674 1162.117202 321.129818 1106.835836 197.269034zM967.137485 499.333724C793.061855 693.400217 634.636143 844.294953 567.970744 906.119011c-66.665399-61.824058-225.066091-212.718794-399.141721-406.785287-70.00555-78.011903-87.594507-173.262485-48.300827-261.294839C157.34491 155.535919 236.883024 100.079414 318.422726 100.079414c161.277975 0 197.431663 119.870118 200.946953 133.14315 5.479348 22.392769 25.55778 38.142767 48.613575 38.142767 23.068305 0 43.121717-15.749998 48.626085-38.142767C617.910371 227.780745 651.074187 100.079414 817.531271 100.079414c81.564722 0 161.077816 55.456505 197.90704 137.959472C1054.731992 326.083749 1037.118015 421.321821 967.137485 499.333724z" p-id="2004"></path><path d="M817.005855 154.622694c-27.446779-3.815528-52.604242 15.43725-56.3322 42.833989-3.740468 27.37172 15.43725 52.591732 42.821479 56.3322 2.614575 0.350278 64.225964 9.745233 70.093119 97.815117 1.7639 26.433475 23.731331 46.712066 49.864568 46.712066 1.113383 0 2.251787-0.03753 3.39019-0.112589 27.571878-1.826449 48.438436-25.68288 46.611987-53.254758C964.460361 210.041669 867.18317 161.453114 817.005855 154.622694z" p-id="2005"></path><path d="M862.892266 419.958239c-13.135423 0-26.020648 5.391778-35.403093 14.649124-9.257346 9.232326-14.636614 22.14257-14.636614 35.390583 0 13.147933 5.379268 26.008138 14.636614 35.390583 9.382445 9.257346 22.26767 14.649124 35.403093 14.649124s26.020648-5.391778 35.403093-14.649124c9.257346-9.382445 14.636614-22.24265 14.636614-35.390583 0-13.273032-5.379268-26.158257-14.636614-35.390583C888.912913 425.337508 876.015179 419.958239 862.892266 419.958239z" p-id="2006"></path></svg>