<?xml version="1.0" standalone="no"?><!DOCTYPE svg PUBLIC "-//W3C//DTD SVG 1.1//EN" "http://www.w3.org/Graphics/SVG/1.1/DTD/svg11.dtd"><svg t="1545888035729" class="icon" style="" viewBox="0 0 1024 1024" version="1.1" xmlns="http://www.w3.org/2000/svg" p-id="7189" xmlns:xlink="http://www.w3.org/1999/xlink" width="200" height="200"><defs><style type="text/css"></style></defs><path d="M757.946643 25.689666H265.425479c-32.314208 0-58.506176 26.197129-58.506176 58.513057v858.229921c0 32.312488 26.191968 58.497575 58.506176 58.497575h492.521164c32.312488 0 58.497575-26.185088 58.497575-58.497575V84.201003c0-32.315928-26.185088-58.511337-58.497575-58.511337zM267.77357 147.613227h487.678764v121.9098H267.77357V147.613227z m156.159248 548.536472c0-48.448089 39.277631-87.746363 87.741202-87.746363 48.472172 0 87.753243 39.298274 87.753243 87.746363 0 48.477332-39.281072 87.765285-87.753243 87.765285-48.45497 0-87.741202-39.287953-87.741202-87.765285z m331.586604-243.74391H267.845819V330.487388h487.673603v121.918401z" p-id="7190"></path></svg>