<?xml version="1.0" standalone="no"?><!DOCTYPE svg PUBLIC "-//W3C//DTD SVG 1.1//EN" "http://www.w3.org/Graphics/SVG/1.1/DTD/svg11.dtd"><svg t="1545917976382" class="icon" style="" viewBox="0 0 1024 1024" version="1.1" xmlns="http://www.w3.org/2000/svg" p-id="11949" xmlns:xlink="http://www.w3.org/1999/xlink" width="200" height="200"><defs><style type="text/css"></style></defs><path d="M202.625884 62.002123c-41.437761 0-75.000158 33.56035-75.000158 74.998111l0 749.996462c0 41.438785 33.562397 75.001181 75.000158 75.001181l618.747209 0c41.437761 0 75.000158-33.562397 75.000158-75.001181L896.373251 586.998111l-33.746592 0c-22.868847 0-41.253566-18.374486-41.253566-41.253566L821.373093 440.752306c0-22.877033 18.384719-41.253566 41.253566-41.253566l33.746592 0L896.373251 247.997234c0-25.119097-9.943466-47.431266-25.873274-63.554478l-95.251388-94.876857c-16.882506-17.064654-40.501436-27.563776-66.37471-27.563776L202.625884 62.002123zM296.376081 193.251376l0 168.747285c0 20.62883-16.882506 37.500079-37.500079 37.500079s-37.500079-16.871249-37.500079-37.500079L221.375923 193.251376c0-20.62883 16.882506-37.502126 37.500079-37.502126S296.376081 172.622546 296.376081 193.251376zM465.125413 193.251376l0 168.747285c0 20.62883-16.882506 37.500079-37.500079 37.500079-20.617573 0-37.500079-16.871249-37.500079-37.500079L390.125255 193.251376c0-20.62883 16.882506-37.502126 37.500079-37.502126C448.242907 155.74925 465.125413 172.622546 465.125413 193.251376zM633.873722 193.251376l0 168.747285c0 20.62883-16.882506 37.500079-37.500079 37.500079s-37.500079-16.871249-37.500079-37.500079L558.873564 193.251376c0-20.62883 16.882506-37.502126 37.500079-37.502126S633.873722 172.622546 633.873722 193.251376zM262.629489 661.997246l442.490903 0c22.868847 0 41.253566 18.374486 41.253566 41.253566l0 123.743302c0 22.877033-18.384719 41.253566-41.253566 41.253566L262.629489 868.24768c-22.868847 0-41.253566-18.376533-41.253566-41.253566L221.375923 703.250812C221.375923 680.371732 239.760642 661.997246 262.629489 661.997246z" p-id="11950"></path></svg>