<?xml version="1.0" standalone="no"?><!DOCTYPE svg PUBLIC "-//W3C//DTD SVG 1.1//EN" "http://www.w3.org/Graphics/SVG/1.1/DTD/svg11.dtd"><svg t="1545921273540" class="icon" style="" viewBox="0 0 1160 1024" version="1.1" xmlns="http://www.w3.org/2000/svg" p-id="26670" xmlns:xlink="http://www.w3.org/1999/xlink" width="226.5625" height="200"><defs><style type="text/css"></style></defs><path d="M626.87034 4.837559a49.863109 49.863109 0 0 0-53.688156 7.012586L282.991142 256.928136l-231.252823-0.937511h-0.200002a50.00061 50.00061 0 0 0-35.562934 14.900182 51.363127 51.363127 0 0 0-14.887682 36.250442L0.000188 716.658748a51.63813 51.63813 0 0 0 14.725179 36.250443 49.750607 49.750607 0 0 0 35.725436 15.062684h234.040357l288.753525 244.16548a49.888109 49.888109 0 0 0 53.688155 6.975085 51.250626 51.250626 0 0 0 29.050355-46.350565V51.188125a51.250626 51.250626 0 0 0-29.112855-46.350566zM822.510228 260.828184c-24.887804-11.950146-54.450665-1.075013-66.550812 24.050294a51.888133 51.888133 0 0 0 23.062781 68.300833c3.187539 1.687521 78.750961 41.538007 78.750961 155.001892 0 121.25148-70.675863 161.451971-73.025891 162.764487-24.912804 12.650154-35.000427 43.43803-22.575276 68.750839a50.413115 50.413115 0 0 0 45.225552 28.325346 49.713107 49.713107 0 0 0 22.500275-5.387565c5.262564-2.712533 128.751572-67.575825 128.751572-254.428106 0-180.289701-130.626595-244.740488-136.176663-247.415521zM979.612146 110.463848c-23.262784-15.150185-54.138161-8.250101-69.338347 15.312687a51.850633 51.850633 0 0 0 14.650179 70.763364c5.462567 3.650045 134.714144 93.026136 134.714145 315.478851 0 222.940221-124.001514 312.391313-128.926574 315.803855a51.650631 51.650631 0 0 0-14.000171 71.013367 50.00061 50.00061 0 0 0 70.000854 14.162673c7.075086-4.762558 173.839622-120.776474 173.839622-401.017395C1160.526854 231.252823 987.012236 115.263907 979.612146 110.463848z m0 0" p-id="26671"></path></svg>