<?xml version="1.0" standalone="no"?><!DOCTYPE svg PUBLIC "-//W3C//DTD SVG 1.1//EN" "http://www.w3.org/Graphics/SVG/1.1/DTD/svg11.dtd"><svg t="1545918529006" class="icon" style="" viewBox="0 0 1024 1024" version="1.1" xmlns="http://www.w3.org/2000/svg" p-id="13453" xmlns:xlink="http://www.w3.org/1999/xlink" width="200" height="200"><defs><style type="text/css"></style></defs><path d="M467.008 1024c-63.36 0-123.84-12.352-181.504-36.992a473.28 473.28 0 0 1-148.992-99.008 463.04 463.04 0 0 1-99.52-148.48A455.552 455.552 0 0 1 0 558.528c0-63.04 12.352-123.2 36.992-180.48a470.4 470.4 0 0 1 99.52-148.544A462.272 462.272 0 0 1 285.44 130.496a462.144 462.144 0 0 1 181.504-36.48v464.96l329.984 328a468.544 468.544 0 0 1-150.016 101.056A456.768 456.768 0 0 1 467.008 1024z m64-532.032V0c66.688 0 130.496 12.992 191.488 39.04a493.824 493.824 0 0 1 157.504 104.96 495.232 495.232 0 0 1 104.96 156.992c26.048 60.672 39.04 124.352 39.04 190.976H531.008z m25.984 65.024H1024c0 62.72-11.84 122.176-35.52 178.56a459.712 459.712 0 0 1-99.456 148.48l-332.032-327.04z" p-id="13454"></path></svg>