<?xml version="1.0" standalone="no"?><!DOCTYPE svg PUBLIC "-//W3C//DTD SVG 1.1//EN" "http://www.w3.org/Graphics/SVG/1.1/DTD/svg11.dtd"><svg t="1545919478036" class="icon" style="" viewBox="0 0 1024 1024" version="1.1" xmlns="http://www.w3.org/2000/svg" p-id="24648" xmlns:xlink="http://www.w3.org/1999/xlink" width="200" height="200"><defs><style type="text/css"></style></defs><path d="M766.976 69.632H256c-52.224 0-95.232 43.008-95.232 96.256v692.224c0 53.248 43.008 96.256 96.256 96.256h508.928c53.248 0 96.256-43.008 96.256-96.256V165.888c1.024-53.248-41.984-96.256-95.232-96.256zM344.064 430.08c0-1.024 1.024-1.024 1.024-1.024L563.2 172.032l3.072-3.072c1.024-1.024 7.168-4.096 14.336-4.096 6.144 0 12.288 2.048 15.36 7.168 4.096 5.12 6.144 12.288 5.12 21.504v1.024l-29.696 143.36 113.664 1.024c11.264 1.024 15.36 7.168 16.384 9.216 4.096 9.216-1.024 19.456-2.048 21.504-1.024 1.024-1.024 1.024-1.024 2.048L444.416 641.024c-1.024 1.024-3.072 3.072-5.12 3.072-4.096 2.048-8.192 3.072-12.288 3.072-6.144 0-12.288-2.048-15.36-7.168-6.144-7.168-5.12-14.336-5.12-16.384 0-1.024 1.024-2.048 1.024-3.072l55.296-161.792h-101.376c-12.288 0-16.384-7.168-19.456-10.24-3.072-5.12-2.048-13.312 2.048-18.432z m482.304 318.464H199.68v-37.888h627.712l-1.024 37.888z m-530.432 81.92c0 18.432-14.336 33.792-33.792 33.792-18.432 0-33.792-14.336-33.792-33.792 0-18.432 14.336-33.792 33.792-33.792 18.432 1.024 33.792 16.384 33.792 33.792z m100.352 0c0 18.432-14.336 33.792-33.792 33.792-18.432 0-33.792-14.336-33.792-33.792 0-18.432 15.36-33.792 33.792-33.792 18.432 1.024 33.792 16.384 33.792 33.792z m0 0" p-id="24649"></path></svg>