<?xml version="1.0" standalone="no"?><!DOCTYPE svg PUBLIC "-//W3C//DTD SVG 1.1//EN" "http://www.w3.org/Graphics/SVG/1.1/DTD/svg11.dtd"><svg t="1545916784207" class="icon" style="" viewBox="0 0 1024 1024" version="1.1" xmlns="http://www.w3.org/2000/svg" p-id="7850" xmlns:xlink="http://www.w3.org/1999/xlink" width="200" height="200"><defs><style type="text/css"></style></defs><path d="M222.475 64.992c19.336 7.898 25.299 22.518 25.265 42.927-0.418 269.561-0.418 539.121 0 808.663 0.035 20.4-5.911 35.047-25.265 42.928-5.37 0-10.724 0-16.076 0-14.245-2.424-22.58-10.741-25.003-24.985 0-281.521 0-563.025 0-844.538 2.423-14.245 10.758-22.579 25.003-24.994C211.751 64.992 217.105 64.992 222.475 64.992z" p-id="7851"></path><path d="M845.602 554.209c-3.069 2.006-2.004 5.458-2.371 8.091-4.132 30.844-23.242 54.262-39.353 78.969-28.526 43.781-59.475 85.994-85.244 131.554-7.603 13.426-14.787 27.061-18.327 42.299-2.893 12.52-1.969 15.345 8.213 22.563 11.333 8.02 15.5 19.667 11.719 32.796-7.132 24.707-35.205 35.866-57.313 22.772-40.085-23.766-50.896-59.51-32.187-107.668 16.982-43.729 44.497-80.989 73.284-117.396 17.331-21.9 36.213-42.597 50.615-66.709 5.021-8.422 9.468-17.158 12.466-26.486 9.714-30.094-3.607-54.505-33.894-63.572-26.99-8.072-54.629-7.688-82.264-6.921-7.566 0.208-9.328-1.832-9.084-9.172 0.592-17.837 0.192-35.709 0.192-53.546 0-3.156-0.978-6.347 4.654-5.946 41.794 2.912 83.711 5.283 123.952 18.43 25.857 8.439 49.275 20.679 63.834 45.299 5.387 9.101 8.752 18.778 9.625 29.327 1.795 7.167-0.908 14.629 1.481 21.742C845.602 551.821 845.602 553.025 845.602 554.209z" p-id="7852"></path><path d="M845.602 550.635c-3.173-7.061-1.377-14.471-1.481-21.742 0.608-0.401 1.098-0.295 1.481 0.315C845.602 536.355 845.602 543.504 845.602 550.635z" p-id="7853"></path><path d="M299.246 464.135c0-98.756 0.087-197.505-0.158-296.254-0.034-7.628 1.204-10.471 9.765-10.287 29.449 0.627 58.916 0.863 88.331-0.07 13.373-0.418 24.044 3.732 34.574 11.081 32.921 22.989 64.602 47.574 95.881 72.7 29.903 24.017 59.422 48.506 87.86 74.277 8.718 7.916 12.659 16.146 12.572 28.386-0.559 86.849-0.402 173.697-0.123 260.563 0.034 7.566-2.214 12.833-7.655 17.749-28.453 25.806-59.09 48.856-89.863 71.731-32.188 23.924-64.827 47.199-98.793 68.576-10.305 6.47-20.749 10.062-33.372 9.712-30.304-0.819-60.678-0.488-90.999-0.088-6.747 0.106-8.195-1.639-8.178-8.246C299.315 664.021 299.246 564.078 299.246 464.135z" p-id="7854"></path><path d="M256.388 464.938c0-104.145 0.087-208.29-0.174-312.435-0.018-7.402 1.639-9.373 9.119-9.154 19.616 0.566 19.633 0.174 19.633 19.859 0 204.419-0.052 408.855 0.192 613.275 0 8.038-1.882 10.322-10.024 10.043-18.727-0.645-18.745-0.192-18.745-18.971C256.388 666.671 256.388 565.805 256.388 464.938z" p-id="7855"></path></svg>