<?xml version="1.0" standalone="no"?><!DOCTYPE svg PUBLIC "-//W3C//DTD SVG 1.1//EN" "http://www.w3.org/Graphics/SVG/1.1/DTD/svg11.dtd"><svg t="1545916682680" class="icon" style="" viewBox="0 0 1024 1024" version="1.1" xmlns="http://www.w3.org/2000/svg" p-id="5649" xmlns:xlink="http://www.w3.org/1999/xlink" width="200" height="200"><defs><style type="text/css"></style></defs><path d="M920.064 831.936H771.2a36.608 36.608 0 0 1-37.184-35.84l-0.064-35.84h-49.664V832H609.92v-71.68h-49.664V832H460.992v-71.68h-49.6V832H336.96v-71.68h-49.664l-0.256 35.712a35.2 35.2 0 0 1-10.88 25.408 37.952 37.952 0 0 1-26.24 10.496H101.12a37.952 37.952 0 0 1-26.304-10.496 35.2 35.2 0 0 1-10.88-25.408V294.464c0-19.84 16.64-35.84 37.184-35.84h818.816c9.856 0 19.392 3.712 26.368 10.432a35.2 35.2 0 0 1 10.88 25.408v501.568a35.2 35.2 0 0 1-10.88 25.408 37.952 37.952 0 0 1-26.304 10.496z m-37.248-170.24h-39.04a36.608 36.608 0 0 1-37.312-35.84c0-19.84 16.704-35.904 37.312-35.904h39.04V330.368H138.496v259.584h37.76c20.608 0 37.312 16 37.312 35.84 0 19.84-16.64 35.84-37.248 35.84h-37.888v98.496h74.24l0.256-47.616c0-19.84 4.288-23.936 24.832-23.936h545.92c20.48 0 24.768 4.096 24.768 23.936v47.616h74.432v-98.432h-0.064z m-148.864-116.48h74.432V378.112h-74.432V545.28z m-173.696 0h74.496V378.112H560.256V545.28z m-173.632 0h74.432V378.112H386.624V545.28zM212.864 378.112h74.432V545.28l-73.216-0.128-1.28-167.104z" p-id="5650"></path></svg>