<?xml version="1.0" standalone="no"?><!DOCTYPE svg PUBLIC "-//W3C//DTD SVG 1.1//EN" "http://www.w3.org/Graphics/SVG/1.1/DTD/svg11.dtd"><svg t="1545917262916" class="icon" style="" viewBox="0 0 1024 1024" version="1.1" xmlns="http://www.w3.org/2000/svg" p-id="11266" xmlns:xlink="http://www.w3.org/1999/xlink" width="200" height="200"><defs><style type="text/css"></style></defs><path d="M935.563636 954.181818h-837.818181c-9.309091 0-18.618182-4.654545-20.945455-13.963636-6.981818-4.654545-13.963636-11.636364-13.963636-20.945455v-837.818182c0-13.963636 9.309091-23.272727 23.272727-23.272727h302.545454c13.963636 0 23.272727 9.309091 23.272728 23.272727V605.090909h523.636363c13.963636 0 23.272727 9.309091 23.272728 23.272727v302.545455c0 13.963636-9.309091 23.272727-23.272728 23.272727zM118.690909 907.636364h793.6V651.636364H390.981818c-13.963636 0-23.272727-9.309091-23.272727-23.272728V104.727273h-256v793.6c2.327273 2.327273 4.654545 4.654545 6.981818 9.309091z" fill="#666666" p-id="11267"></path><path d="M204.8 314.181818h-93.090909c-13.963636 0-23.272727-9.309091-23.272727-23.272727s9.309091-23.272727 23.272727-23.272727h93.090909c13.963636 0 23.272727 9.309091 23.272727 23.272727s-11.636364 23.272727-23.272727 23.272727zM204.8 523.636364h-93.090909c-13.963636 0-23.272727-9.309091-23.272727-23.272728s9.309091-23.272727 23.272727-23.272727h93.090909c13.963636 0 23.272727 9.309091 23.272727 23.272727s-11.636364 23.272727-23.272727 23.272728zM204.8 733.090909h-93.090909c-13.963636 0-23.272727-9.309091-23.272727-23.272727s9.309091-23.272727 23.272727-23.272727h93.090909c13.963636 0 23.272727 9.309091 23.272727 23.272727s-11.636364 23.272727-23.272727 23.272727zM321.163636 942.545455c-13.963636 0-23.272727-9.309091-23.272727-23.272728v-93.090909c0-13.963636 9.309091-23.272727 23.272727-23.272727s23.272727 9.309091 23.272728 23.272727v93.090909c0 13.963636-11.636364 23.272727-23.272728 23.272728zM530.618182 942.545455c-13.963636 0-23.272727-9.309091-23.272727-23.272728v-93.090909c0-13.963636 9.309091-23.272727 23.272727-23.272727s23.272727 9.309091 23.272727 23.272727v93.090909c0 13.963636-11.636364 23.272727-23.272727 23.272728zM740.072727 942.545455c-13.963636 0-23.272727-9.309091-23.272727-23.272728v-93.090909c0-13.963636 9.309091-23.272727 23.272727-23.272727s23.272727 9.309091 23.272728 23.272727v93.090909c0 13.963636-11.636364 23.272727-23.272728 23.272728z" fill="#666666" p-id="11268"></path></svg>