<?xml version="1.0" standalone="no"?><!DOCTYPE svg PUBLIC "-//W3C//DTD SVG 1.1//EN" "http://www.w3.org/Graphics/SVG/1.1/DTD/svg11.dtd"><svg t="1545921077956" class="icon" style="" viewBox="0 0 1024 1024" version="1.1" xmlns="http://www.w3.org/2000/svg" p-id="25919" xmlns:xlink="http://www.w3.org/1999/xlink" width="200" height="200"><defs><style type="text/css"></style></defs><path d="M912 112v800H112V112h800m0-48H112a48 48 0 0 0-48 48v800a48 48 0 0 0 48 48h800a48 48 0 0 0 48-48V112a48 48 0 0 0-48-48z m-48.46 429.82a353.67 353.67 0 0 0-4-38 351.19 351.19 0 0 0-74.71-166.26A351.06 351.06 0 0 0 512 160q-9.15 0-18.18 0.46a353.81 353.81 0 0 0-38.11 4 351.11 351.11 0 0 0-166 74.62A351 351 0 0 0 160 512q0 9.15 0.46 18.18a353.67 353.67 0 0 0 4 38 351.1 351.1 0 0 0 74.64 166.15A351.06 351.06 0 0 0 512 864q9.15 0 18.18-0.46a353.67 353.67 0 0 0 38-4 351.14 351.14 0 0 0 166.27-74.72A351.05 351.05 0 0 0 864 512q0-9.15-0.46-18.18z m-49.31-109.49A324.7 324.7 0 0 1 839 486.28a216.57 216.57 0 0 1-15.5 17.23A212.81 212.81 0 0 1 672 566.27a215.65 215.65 0 0 1-54.1-6.85 115.08 115.08 0 0 0 9.37-34.42 238.93 238.93 0 0 0 173.26-169.19q7.47 13.88 13.7 28.52z m-70.3-104.26a329.76 329.76 0 0 1 38.41 46.08 214.8 214.8 0 0 1-154.94 174 115.13 115.13 0 0 0-9.07-34.54 238.87 238.87 0 0 0 65.45-233.11 327.71 327.71 0 0 1 60.15 47.57z m-104.27-70.3q6.86 2.89 13.53 6.08a216.68 216.68 0 0 1 7.22 22.15A212.86 212.86 0 0 1 639 400.57 215.87 215.87 0 0 1 606 444a116.51 116.51 0 0 0-25.13-25.37 239 239 0 0 0-59.77-234.5 325.15 325.15 0 0 1 118.56 25.64zM604 512a91.63 91.63 0 0 1-1.72 17.72 90.56 90.56 0 0 1-7.45 22.28 92 92 0 0 1-76.06 51.75c-2.24 0.17-4.49 0.25-6.77 0.25a92 92 0 0 1-91.75-85.22q-0.25-3.36-0.25-6.78a92 92 0 0 1 85.12-91.74c2.27-0.17 4.57-0.26 6.88-0.26a92 92 0 0 1 91.75 85.22q0.25 3.36 0.25 6.78zM384.33 209.77A324.73 324.73 0 0 1 486.24 185a214.37 214.37 0 0 1 80 167 215.22 215.22 0 0 1-6.86 54.11 114.44 114.44 0 0 0-34.38-9.38 238.93 238.93 0 0 0-169.19-173.26q13.88-7.47 28.52-13.7z m-104.26 70.3a329 329 0 0 1 46.09-38.41A214.36 214.36 0 0 1 500 396.62a114.6 114.6 0 0 0-34.4 9.05 238.92 238.92 0 0 0-233.1-65.45 328.14 328.14 0 0 1 47.57-60.15zM238 363.59a214.36 214.36 0 0 1 205.92 54.5 116.43 116.43 0 0 0-25.25 25 239.42 239.42 0 0 0-66.65-9.4 236.68 236.68 0 0 0-167.89 69.21 325.24 325.24 0 0 1 25.64-118.57q2.89-6.84 6.09-13.52a214.06 214.06 0 0 1 22.14-7.22z m-28.23 276.08A324.7 324.7 0 0 1 185 537.72a216.57 216.57 0 0 1 15.5-17.23 214.33 214.33 0 0 1 205.56-55.78 114.57 114.57 0 0 0-9.33 34.29 239.09 239.09 0 0 0-62.43 25.18 236.69 236.69 0 0 0-110.82 144q-7.48-13.86-13.71-28.51z m70.3 104.26a328.43 328.43 0 0 1-38.41-46.1 215.61 215.61 0 0 1 4.8-22.72A214.84 214.84 0 0 1 396.6 523.89a115.13 115.13 0 0 0 9.07 34.54 238.87 238.87 0 0 0-65.45 233.07 327.71 327.71 0 0 1-60.15-47.57z m104.26 70.3q-6.84-2.9-13.51-6.07A214.91 214.91 0 0 1 418 580a116.51 116.51 0 0 0 25.13 25.37 239 239 0 0 0 59.77 234.5 325.24 325.24 0 0 1-118.57-25.64z m255.33 0A324.64 324.64 0 0 1 537.72 839a216.57 216.57 0 0 1-17.23-15.5A212.81 212.81 0 0 1 457.73 672a215.22 215.22 0 0 1 6.86-54.11 114.44 114.44 0 0 0 34.41 9.38 239.09 239.09 0 0 0 25.18 62.43 236.69 236.69 0 0 0 144 110.82q-13.88 7.48-28.52 13.71z m104.27-70.3a329.49 329.49 0 0 1-46.07 38.4 214.78 214.78 0 0 1-174-154.93 115.07 115.07 0 0 0 34.53-9.07 239.22 239.22 0 0 0 53 41.46 236.83 236.83 0 0 0 118.75 32 239.5 239.5 0 0 0 61.32-8 327.71 327.71 0 0 1-47.53 60.14zM786 660.41A212.86 212.86 0 0 1 623.43 639 215.87 215.87 0 0 1 580 606a116.51 116.51 0 0 0 25.37-25.13 239 239 0 0 0 234.5-59.77 325.24 325.24 0 0 1-25.64 118.57q-2.9 6.84-6.08 13.52a216.68 216.68 0 0 1-22.15 7.22z" fill="" p-id="25920"></path><path d="M224 192a32 32 0 1 1-32-32 32 32 0 0 1 32 32z m-32 608a32 32 0 1 0 32 32 32 32 0 0 0-32-32z m640-640a32 32 0 1 0 32 32 32 32 0 0 0-32-32z m0 640a32 32 0 1 0 32 32 32 32 0 0 0-32-32z" fill="#1890FF" p-id="25921"></path></svg>