<?xml version="1.0" standalone="no"?><!DOCTYPE svg PUBLIC "-//W3C//DTD SVG 1.1//EN" "http://www.w3.org/Graphics/SVG/1.1/DTD/svg11.dtd"><svg t="1545919154312" class="icon" style="" viewBox="0 0 1024 1024" version="1.1" xmlns="http://www.w3.org/2000/svg" p-id="19993" xmlns:xlink="http://www.w3.org/1999/xlink" width="200" height="200"><defs><style type="text/css"></style></defs><path d="M204.8 960c-15.36 0-25.6-12.8-25.6-25.6l0-842.24c0-15.36 10.24-25.6 25.6-25.6s25.6 12.8 25.6 25.6l0 842.24C230.4 947.2 220.16 960 204.8 960z" p-id="19994"></path><path d="M819.2 960c-15.36 0-25.6-12.8-25.6-25.6l0-842.24c0-15.36 10.24-25.6 25.6-25.6s25.6 12.8 25.6 25.6l0 842.24C844.8 947.2 834.56 960 819.2 960z" p-id="19995"></path><path d="M924.16 230.4l-824.32 0c-15.36 0-25.6-10.24-25.6-25.6s12.8-25.6 25.6-25.6l824.32 0c15.36 0 25.6 10.24 25.6 25.6S939.52 230.4 924.16 230.4z" p-id="19996"></path><path d="M924.16 844.8l-824.32 0c-15.36 0-25.6-10.24-25.6-25.6s12.8-25.6 25.6-25.6l824.32 0c15.36 0 25.6 10.24 25.6 25.6S939.52 844.8 924.16 844.8z" p-id="19997"></path><path d="M314.88 721.92c-5.12 0-7.68 0-12.8-2.56-2.56-2.56-5.12-5.12-5.12-10.24l0-238.08c0-7.68 5.12-12.8 10.24-15.36 5.12-2.56 12.8 0 17.92 2.56l58.88 56.32 133.12-133.12-56.32-58.88c-5.12-5.12-5.12-12.8-2.56-17.92 2.56-5.12 7.68-10.24 15.36-10.24l238.08 0 0 0c10.24 0 17.92 7.68 17.92 17.92l0 238.08c0 7.68-5.12 15.36-12.8 15.36-10.24 2.56-10.24 2.56-71.68-58.88l-130.56 130.56c61.44 61.44 61.44 61.44 56.32 71.68-2.56 7.68-7.68 10.24-15.36 10.24L314.88 721.92C314.88 721.92 314.88 721.92 314.88 721.92zM330.24 514.56l0 179.2 181.76 0c-10.24-10.24-20.48-20.48-35.84-38.4-2.56-2.56-5.12-7.68-5.12-12.8 0-5.12 2.56-7.68 5.12-12.8l156.16-156.16c2.56-2.56 7.68-5.12 12.8-5.12 5.12 0 7.68 2.56 12.8 5.12 15.36 15.36 28.16 28.16 38.4 38.4l0-181.76-179.2 0 40.96 40.96c7.68 7.68 7.68 17.92 0 23.04l-156.16 156.16c-7.68 7.68-17.92 7.68-25.6 0L330.24 514.56z" p-id="19998"></path></svg>